<svg width="150" height="50" viewBox="0 0 150 50" fill="none" xmlns="http://www.w3.org/2000/svg">
<path d="M65.7328 27.4617C65.7328 29.9556 63.7343 30.7275 60.9602 30.7275H57.5498V19.3865H60.5327C63.4658 19.3865 65.2556 20.2079 65.2556 22.2761C65.2556 23.6913 64.2314 24.4929 63.1477 24.7205C64.4303 24.9679 65.7328 25.5914 65.7328 27.4617ZM59.7173 24.0575H61.0596C62.2429 24.0575 63.0184 23.533 63.0184 22.4642C63.0184 21.3162 62.223 20.9897 60.7415 20.9897H59.7173V24.0575ZM63.4559 27.3826C63.4559 26.0169 62.4815 25.5518 61.2187 25.5518H59.7173V29.1045H60.9801C62.4218 29.1144 63.4658 28.8175 63.4559 27.3826Z" fill="#FAFAFA"/>
<path d="M70.0883 29.2827C70.2573 29.2827 70.4263 29.253 70.5854 29.2035L71.0229 30.678C70.5456 30.8759 70.0385 30.9749 69.5215 30.9749C68.219 30.9749 67.4633 30.203 67.4633 28.7582V18.5651L69.5712 18.3276V28.6097C69.5911 29.0847 69.7403 29.2827 70.0883 29.2827Z" fill="#FAFAFA"/>
<path d="M80.1804 26.3832C80.1804 29.1145 78.6492 30.9849 76.0641 30.9849C73.4789 30.9849 71.9477 29.2432 71.9477 26.3832C71.9477 23.6518 73.4789 21.8013 76.0641 21.8013C78.6492 21.8013 80.1804 23.543 80.1804 26.3832ZM74.1948 26.3832C74.1948 28.4713 74.8411 29.3817 76.074 29.3817C77.3069 29.3817 77.9532 28.4416 77.9532 26.3832C77.9532 24.3248 77.3069 23.3945 76.0839 23.3945C74.861 23.3945 74.1749 24.3347 74.1749 26.3832H74.1948Z" fill="#FAFAFA"/>
<path d="M88.1943 22.8204L87.2397 24.097C86.7525 23.6814 86.1361 23.4538 85.4898 23.4538C84.2668 23.4538 83.5211 24.3444 83.5211 26.4226C83.5211 28.5008 84.2966 29.2628 85.4898 29.2628C86.1261 29.2529 86.7426 29.0055 87.2199 28.58L88.1943 29.9456C87.3988 30.5988 86.4045 30.955 85.3705 30.9452C82.845 30.9452 81.2839 29.2034 81.2839 26.4325C81.2839 23.6616 82.8549 21.7912 85.3605 21.7912C86.4045 21.7615 87.4187 22.1277 88.1943 22.8204Z" fill="#FAFAFA"/>
<path d="M89.6457 30.7275V18.5651L91.7536 18.3276V30.7275H89.6457ZM97.2719 30.7275H94.8459L91.8331 25.9774L94.7564 22.0387H96.9737L94.0703 25.8685L97.2719 30.7275Z" fill="#FAFAFA"/>
<path d="M104.699 22.8304L103.874 24.0971C103.248 23.6419 102.502 23.3747 101.726 23.3549C100.832 23.3549 100.354 23.7012 100.354 24.2257C100.354 24.7502 100.692 25.0669 102.184 25.4726C103.964 25.9477 104.968 26.6701 104.968 28.204C104.968 30.0051 103.287 30.965 101.289 30.965C100.016 31.0046 98.7734 30.5593 97.8089 29.7379L98.8827 28.5404C99.539 29.0847 100.364 29.3915 101.229 29.4113C102.184 29.4113 102.8 29.0056 102.8 28.392C102.8 27.63 102.462 27.4024 100.822 26.9472C99.0219 26.4524 98.2265 25.6013 98.2265 24.3247C98.2265 22.8799 99.5589 21.8012 101.597 21.8012C102.721 21.7616 103.824 22.1376 104.699 22.8304Z" fill="#FAFAFA"/>
<path d="M109.791 30.9749C108.08 30.9551 107.166 29.9952 107.166 28.1347V23.5429H105.793V22.0486H107.166V20.1288L109.273 19.8813V22.0486H111.302L111.093 23.5429H109.273V28.0753C109.273 28.9363 109.552 29.2728 110.198 29.2728C110.566 29.253 110.924 29.1441 111.222 28.9264L111.958 30.2921C111.332 30.7374 110.566 30.9749 109.791 30.9749Z" fill="#FAFAFA"/>
<path d="M118.43 21.9298L118.063 23.9783C117.814 23.909 117.546 23.8793 117.287 23.8793C116.233 23.8793 115.686 24.6512 115.358 26.106V30.7374H113.25V22.0485H115.08L115.279 23.7507C115.686 22.5038 116.531 21.811 117.555 21.811C117.854 21.811 118.142 21.8506 118.43 21.9298Z" fill="#FAFAFA"/>
<path d="M126.782 27.0363H121.314C121.463 28.8077 122.308 29.3817 123.461 29.3817C124.257 29.3718 125.013 29.0947 125.639 28.6098L126.514 29.8072C125.609 30.5594 124.466 30.975 123.272 30.975C120.568 30.975 119.116 29.1838 119.116 26.4426C119.116 23.8003 120.518 21.8013 122.994 21.8013C125.47 21.8013 126.842 23.444 126.842 26.1853C126.832 26.4624 126.802 26.8087 126.782 27.0363ZM124.744 25.5915C124.744 24.1664 124.237 23.3055 123.034 23.3055C122.04 23.3055 121.423 23.9586 121.324 25.6905H124.754V25.5915H124.744Z" fill="#FAFAFA"/>
<path d="M135.851 29.5499L135.404 30.9453C134.449 30.8661 133.823 30.5198 133.475 29.6786C132.888 30.5297 131.904 31.0245 130.87 30.975C129.12 30.975 128.046 29.8765 128.046 28.303C128.046 26.4129 129.478 25.3936 132.023 25.3936H133.117V24.9087C133.117 23.7706 132.6 23.3945 131.486 23.3945C130.7 23.4341 129.915 23.5826 129.179 23.8597L128.682 22.4247C129.696 22.0289 130.77 21.8211 131.854 21.8013C134.181 21.8013 135.205 22.8701 135.205 24.7899V28.4416C135.195 29.1343 135.423 29.3817 135.851 29.5499ZM133.107 28.3822V26.6108H132.232C130.86 26.6108 130.174 27.1056 130.174 28.1249C130.174 28.9661 130.601 29.4411 131.406 29.4411C132.132 29.4411 132.798 29.0353 133.107 28.3822Z" fill="#FAFAFA"/>
<path d="M149.155 24.4435V30.7276H147.037V24.7701C147.037 23.6914 146.609 23.3748 146.082 23.3748C145.356 23.3748 144.909 23.8795 144.432 24.691V30.7375H142.314V24.78C142.314 23.7013 141.866 23.3847 141.359 23.3847C140.614 23.3847 140.166 23.8894 139.689 24.7008V30.7474H137.581V22.0586H139.411L139.58 23.1966C140.126 22.3357 141.081 21.8211 142.105 21.831C143.06 21.7914 143.925 22.3851 144.213 23.2956C144.879 22.395 145.685 21.831 146.838 21.831C148.22 21.8013 149.155 22.8008 149.155 24.4435Z" fill="#FAFAFA"/>
<path d="M40.3684 13.8447C41.3825 15.2598 42.1979 16.8036 42.8044 18.4365L44.972 17.7339C44.2859 15.8635 43.3413 14.0921 42.178 12.479L40.3684 13.8447Z" fill="#00C3FF"/>
<path d="M25.5431 3.6418C24.9664 3.62201 24.3798 3.62201 23.8031 3.6418L23.9622 5.89812C24.8371 5.86843 25.7121 5.88822 26.5772 5.96739C27.4422 6.04656 28.3072 6.1851 29.1623 6.38303L29.739 4.19598C28.7646 3.96837 27.7803 3.81003 26.786 3.72097C26.3783 3.68138 25.9508 3.65169 25.5431 3.6418Z" fill="#00C3FF"/>
<path d="M4.31525 34.9432C3.41044 33.1025 2.7542 31.153 2.37637 29.144L0 29.5201C0.417605 31.7962 1.15339 34.003 2.18745 36.0713L4.31525 34.9432Z" fill="#00C3FF"/>
<path d="M3.09233 12.192L5.20024 13.3597C6.2542 11.5982 7.53684 9.99504 9.02828 8.57989L7.41752 6.79858C5.72722 8.39186 4.27554 10.2029 3.09233 12.192Z" fill="#00C3FF"/>
<path d="M0.109238 19.9011L2.47566 20.3167C2.89327 18.3078 3.58928 16.3681 4.53386 14.5473L2.42595 13.3894C1.35211 15.4478 0.576557 17.6348 0.109238 19.9011Z" fill="#00C3FF"/>
<path d="M15.5306 1.62297L16.4752 3.81991C18.3942 3.0678 20.4027 2.58289 22.4509 2.38497L22.2819 0C19.9652 0.217715 17.6982 0.762002 15.5306 1.62297Z" fill="#00C3FF"/>
<path d="M8.4317 5.87842L10.0425 7.65972C11.6135 6.33364 13.3535 5.22527 15.2227 4.35441L14.2782 2.15747C12.1603 3.1174 10.1916 4.3742 8.4317 5.87842Z" fill="#00C3FF"/>
<path d="M44.0868 41.0888L42.2076 39.5945C40.8753 41.1581 39.3341 42.5336 37.6339 43.6915L38.9264 45.7202C40.8554 44.4238 42.5954 42.8701 44.0868 41.0888Z" fill="#00C3FF"/>
<path d="M14.795 45.3541C12.9456 44.4536 11.2255 43.3056 9.68435 41.9399L8.04376 43.6916C9.77384 45.2354 11.7227 46.5219 13.8107 47.5313L14.795 45.3541Z" fill="#00C3FF"/>
<path d="M49.8836 27.2936C50.1919 24.0674 49.8637 20.8116 48.9192 17.7141L46.6323 18.4662C47.9448 22.8601 47.895 27.541 46.503 31.9052L48.77 32.7068C49.3368 30.9552 49.7146 29.1343 49.8836 27.2936Z" fill="#00C3FF"/>
<path d="M35.844 43.2262L34.6309 41.3262C33.1296 42.2168 31.5188 42.9096 29.8285 43.3747L30.3654 45.5716C32.2943 45.0372 34.1338 44.2554 35.844 43.2262Z" fill="#00C3FF"/>
<path d="M6.04562 27.353C5.87659 25.9478 5.8567 24.5227 5.99591 23.1076C6.02574 22.7612 6.06551 22.4643 6.11522 22.1576L3.87806 21.7617C3.82834 22.1378 3.77862 22.5138 3.73885 22.8998C3.58971 24.4931 3.60959 26.1061 3.80845 27.6994L6.04562 27.353Z" fill="#00C3FF"/>
<path d="M31.2705 3.19644C33.2492 3.77042 35.1383 4.62149 36.8783 5.71006L38.2206 3.71104C36.2519 2.47402 34.1241 1.52399 31.887 0.87085L31.2705 3.19644Z" fill="#00C3FF"/>
<path d="M21.4867 49.8173L21.7154 47.4323C19.7765 47.175 17.8774 46.6604 16.0678 45.9182L15.0635 48.1152C17.1118 48.9563 19.2794 49.5303 21.4867 49.8173Z" fill="#00C3FF"/>
<path d="M9.70438 40.1092L11.2654 38.4664C10.0325 37.2294 8.96861 35.8439 8.10357 34.3298L6.08514 35.3887C7.0695 37.1107 8.29248 38.7039 9.70438 40.1092Z" fill="#00C3FF"/>
<path d="M39.3541 4.48291L38.0019 6.48193C39.6823 7.66947 41.1836 9.08461 42.4862 10.6779L44.4151 9.21326C42.9535 7.40227 41.2532 5.81889 39.3541 4.48291Z" fill="#00C3FF"/>
<path d="M41.6612 37.6845C42.8543 36.0912 43.8287 34.3495 44.5546 32.4891L42.4168 31.7271C41.7805 33.35 40.9254 34.8839 39.8814 36.2793L41.6612 37.6845Z" fill="#00C3FF"/>
<path d="M43.4411 19.5151L41.2934 20.2277C41.89 22.2762 42.0889 24.4236 41.89 26.5414C41.7806 27.719 41.552 28.8868 41.2039 30.0248L43.3417 30.7769C43.7493 29.4707 44.0278 28.1149 44.157 26.7492C44.3857 24.3148 44.1371 21.8605 43.4411 19.5151Z" fill="#7EE0FF"/>
<path d="M22.0237 44.0973L22.2325 41.8509C20.91 41.6529 19.6075 41.3066 18.3646 40.8118L17.43 42.8603C18.9016 43.454 20.4427 43.8697 22.0237 44.0973Z" fill="#7EE0FF"/>
<path d="M37.5946 20.1683L39.6229 19.4855C39.1357 18.2089 38.4894 16.9917 37.694 15.8635L35.9937 17.15C36.65 18.0902 37.1869 19.0996 37.5946 20.1683Z" fill="#7EE0FF"/>
<path d="M25.3245 9.23315H24.2109L24.3601 11.3509C25.5035 11.3212 26.637 11.4202 27.7606 11.6676L28.3074 9.6191C27.6313 9.47066 26.9552 9.3618 26.2691 9.30243C25.9609 9.27274 25.6427 9.25295 25.3245 9.23315Z" fill="#7EE0FF"/>
<path d="M8.1331 14.9827L10.1217 16.0812C10.8674 14.8541 11.7623 13.7358 12.7964 12.7363L11.2651 11.054C10.0521 12.2217 8.99814 13.5379 8.1331 14.9827Z" fill="#7EE0FF"/>
<path d="M29.8392 8.61953C31.2113 9.03517 32.5337 9.62894 33.7567 10.3712L35.0195 8.49089C33.5877 7.61013 32.0366 6.92729 30.4258 6.44238L29.8392 8.61953Z" fill="#7EE0FF"/>
<path d="M38.0023 14.0625L39.8019 12.6968C38.738 11.3905 37.4952 10.2326 36.133 9.25293L34.8702 11.1332C36.0435 11.9744 37.0875 12.9541 38.0023 14.0625Z" fill="#7EE0FF"/>
<path d="M35.5757 32.8748L37.2461 34.2009C38.0614 33.0926 38.7276 31.8951 39.2447 30.6185L37.2362 29.906C36.7987 30.955 36.2419 31.9545 35.5757 32.8748Z" fill="#7EE0FF"/>
<path d="M13.5422 37.8726L11.9911 39.5153C13.2638 40.6237 14.6658 41.5638 16.1871 42.306L17.1217 40.2575C15.8291 39.6242 14.626 38.8127 13.5422 37.8726Z" fill="#7EE0FF"/>
<path d="M11.4842 26.5019C11.3847 25.5419 11.3748 24.5721 11.4643 23.6122C11.4842 23.444 11.5041 23.2658 11.5239 23.1075L9.42598 22.7314C9.39615 22.9591 9.36632 23.1867 9.34643 23.4143C9.23706 24.5523 9.25695 25.6904 9.37626 26.8284L11.4842 26.5019Z" fill="#7EE0FF"/>
<path d="M7.94432 28.2634L5.6972 28.6098C6.01538 30.2624 6.5523 31.8755 7.28808 33.3896L9.29656 32.3307C8.67015 31.0343 8.22272 29.6687 7.94432 28.2634Z" fill="#7EE0FF"/>
<path d="M34.6017 38.9809L35.8247 40.881C37.2167 39.931 38.4795 38.8028 39.5732 37.5361L37.7934 36.1309C36.8588 37.2095 35.7849 38.1695 34.6017 38.9809Z" fill="#7EE0FF"/>
<path d="M9.4555 17.2688L7.47685 16.1802C6.7013 17.6745 6.13455 19.2678 5.78654 20.9105L8.02371 21.3064C8.322 19.9011 8.79926 18.5454 9.4555 17.2688Z" fill="#7EE0FF"/>
<path d="M28.5263 38.0507L29.0235 40.0992C30.3459 39.7232 31.6186 39.1888 32.8117 38.496L31.6583 36.7048C30.674 37.2689 29.62 37.7241 28.5263 38.0507Z" fill="#7EE0FF"/>
<path d="M12.9558 31.7766L11.0667 32.7563C11.7527 33.9439 12.5979 35.0324 13.5624 36.0122L15.0339 34.4585C14.2385 33.647 13.5425 32.7464 12.9558 31.7766Z" fill="#7EE0FF"/>
<path d="M24.1616 42.0288C23.9726 42.0288 23.7837 42.0091 23.5948 41.9893L23.386 44.2357C25.1658 44.3643 26.9555 44.2456 28.6955 43.8893L28.1686 41.6924C26.8561 41.9695 25.5039 42.0783 24.1616 42.0288Z" fill="#7EE0FF"/>
<path d="M12.2897 10.1434L13.811 11.8159C14.9147 10.8955 16.1277 10.1236 17.4302 9.51007L16.5354 7.43188C15.0041 8.14441 13.5823 9.05485 12.2897 10.1434Z" fill="#7EE0FF"/>
<path d="M17.798 6.89763L18.6929 8.97582C20.0352 8.46122 21.4372 8.11485 22.869 7.95651L22.6999 5.7002C21.0196 5.88822 19.369 6.28407 17.798 6.89763Z" fill="#7EE0FF"/>
<path d="M23.5249 49.9854C25.6626 50.0547 27.8003 49.8766 29.9083 49.4708L29.4111 47.165C27.5915 47.5411 25.7322 47.6895 23.8629 47.6203C23.5646 47.6203 23.3459 47.5807 23.0476 47.5609L22.8388 49.9755C23.0675 49.9854 23.2962 49.9854 23.5249 49.9854Z" fill="#00C3FF"/>
</svg>
