<svg xmlns="http://www.w3.org/2000/svg" xmlns:xlink="http://www.w3.org/1999/xlink" width="24" height="24" version="1.1" viewBox="0 0 24 24"><title>Icon/qr</title><g id="Icon/qr" fill="none" fill-rule="evenodd" stroke="none" stroke-width="1"><g id="Group" fill="#78838E" fill-rule="nonzero"><polygon id="Path" points="1.794 1.862 5.43 1.862 5.43 .139 1.794 .139 .07 .139 .07 1.862 .07 5.498 1.794 5.498"/><polygon id="Path" points="1.794 18.502 .07 18.502 .07 22.138 .07 23.861 1.794 23.861 5.43 23.861 5.43 22.138 1.794 22.138"/><polygon id="Path" points="22.207 22.138 18.571 22.138 18.571 23.861 22.207 23.861 23.93 23.861 23.93 22.138 23.93 18.502 22.207 18.502"/><polygon id="Path" points="22.207 .139 18.571 .139 18.571 1.862 22.207 1.862 22.207 5.498 23.93 5.498 23.93 1.862 23.93 .139"/><path id="Shape" d="M3.20863636,11.382 L11.2914545,11.382 L11.2914545,3.29945455 L3.20863636,3.29945455 L3.20863636,11.382 Z M4.845,4.93581818 L9.65509091,4.93581818 L9.65509091,9.74563636 L4.845,9.74563636 L4.845,4.93581818 Z"/><rect id="Rectangle" width="3.091" height="3.091" x="5.704" y="5.795"/><path id="Shape" d="M3.20863636,20.7005455 L11.2914545,20.7005455 L11.2914545,12.618 L3.20863636,12.618 L3.20863636,20.7005455 Z M4.845,14.2543636 L9.65509091,14.2543636 L9.65509091,19.0644545 L4.845,19.0644545 L4.845,14.2543636 Z"/><rect id="Rectangle" width="3.091" height="3.091" x="5.704" y="15.113"/><path id="Shape" d="M20.7913636,3.29945455 L12.7088182,3.29945455 L12.7088182,11.382 L20.7916364,11.382 L20.7916364,3.29945455 L20.7913636,3.29945455 Z M19.155,9.74563636 L14.3451818,9.74563636 L14.3451818,4.93581818 L19.1552727,4.93581818 L19.1552727,9.74563636 L19.155,9.74563636 Z"/><rect id="Rectangle" width="3.091" height="3.091" x="15.205" y="5.795"/><rect id="Rectangle" width="5.359" height="1.723" x="12.709" y="12.618"/><rect id="Rectangle" width="1.723" height="5.587" x="12.709" y="15.114"/><polygon id="Path" points="18.836 20.701 20.791 20.701 20.791 18.977 18.955 18.977 18.955 17.907 16.841 17.907 16.841 18.977 15.068 18.977 15.068 20.701 17.023 20.701 17.023 19.63 18.836 19.63"/><polygon id="Path" points="15.977 15.071 15.977 16.794 19.068 16.794 19.203 16.794 20.791 16.794 20.791 12.618 19.068 12.618 19.068 15.071"/></g></g></svg>