<svg width="20" height="20" viewBox="0 0 20 20" fill="none" xmlns="http://www.w3.org/2000/svg">
<path d="M15.4946 0.256592L18.9946 3.75659C19.1587 3.92078 19.251 4.14346 19.251 4.37566C19.251 4.60785 19.1587 4.83053 18.9946 4.99472C18.8304 5.1589 18.6077 5.25114 18.3755 5.25114C18.1433 5.25114 17.9206 5.1589 17.7564 4.99472L15.7505 2.98769L15.7505 18.3757C15.7505 18.6077 15.6583 18.8303 15.4942 18.9944C15.3301 19.1585 15.1076 19.2507 14.8755 19.2507C14.6434 19.2507 14.4209 19.1585 14.2568 18.9944C14.0927 18.8303 14.0005 18.6077 14.0005 18.3757L14.0005 2.98769L11.9945 4.99472C11.8304 5.1589 11.6077 5.25114 11.3755 5.25114C11.1433 5.25114 10.9206 5.1589 10.7564 4.99472C10.5922 4.83053 10.5 4.60785 10.5 4.37566C10.5 4.14346 10.5922 3.92078 10.7564 3.75659L14.2564 0.256592C14.3377 0.175238 14.4342 0.110699 14.5404 0.0666656C14.6466 0.0226307 14.7605 -3.24249e-05 14.8755 -3.24249e-05C14.9905 -3.24249e-05 15.1043 0.0226307 15.2106 0.0666656C15.3168 0.110699 15.4133 0.175238 15.4946 0.256592ZM8.49455 15.4947C8.65874 15.3305 8.75097 15.1078 8.75097 14.8757C8.75097 14.6435 8.65874 14.4208 8.49455 14.2566C8.33036 14.0924 8.10768 14.0002 7.87549 14.0002C7.64329 14.0002 7.42061 14.0924 7.25642 14.2566L5.25049 16.2636L5.25049 0.875656C5.25049 0.643591 5.1583 0.42103 4.9942 0.256935C4.83011 0.0928421 4.60755 0.000656128 4.37549 0.000656128C4.14342 0.000656128 3.92086 0.0928421 3.75677 0.256935C3.59267 0.42103 3.50049 0.643591 3.50049 0.875656L3.50049 16.2636L1.49455 14.2566C1.33036 14.0924 1.10768 14.0002 0.875486 14.0002C0.643293 14.0002 0.42061 14.0924 0.256424 14.2566C0.0922384 14.4208 3.45995e-09 14.6435 0 14.8757C-3.45995e-09 15.1078 0.0922384 15.3305 0.256424 15.4947L3.75642 18.9947C3.83769 19.0761 3.93419 19.1406 4.04041 19.1846C4.14664 19.2287 4.2605 19.2513 4.37549 19.2513C4.49048 19.2513 4.60434 19.2287 4.71056 19.1846C4.81678 19.1406 4.91329 19.0761 4.99455 18.9947L8.49455 15.4947Z" fill="#FF9417"/>
</svg>
